<svg xmlns="http://www.w3.org/2000/svg" width="700" height="430"><rect width="100%" height="100%" rx="18" fill="white"/><text x="350.0" y="28" text-anchor="middle" font-family="sans-serif" font-size="20" font-weight="700">기온과 생수 판매량</text><line x1="80.0" y1="45" x2="80.0" y2="360" stroke="#e2e8f0"/><line x1="80" y1="45.0" x2="670" y2="45.0" stroke="#e2e8f0"/><text x="80.0" y="384" text-anchor="middle" font-size="14">22</text><text x="68" y="50.0" text-anchor="end" font-size="14">98</text><line x1="198.0" y1="45" x2="198.0" y2="360" stroke="#e2e8f0"/><line x1="80" y1="108.0" x2="670" y2="108.0" stroke="#e2e8f0"/><text x="198.0" y="384" text-anchor="middle" font-size="14">24</text><text x="68" y="113.0" text-anchor="end" font-size="14">88</text><line x1="316.0" y1="45" x2="316.0" y2="360" stroke="#e2e8f0"/><line x1="80" y1="171.0" x2="670" y2="171.0" stroke="#e2e8f0"/><text x="316.0" y="384" text-anchor="middle" font-size="14">26</text><text x="68" y="176.0" text-anchor="end" font-size="14">78</text><line x1="434.0" y1="45" x2="434.0" y2="360" stroke="#e2e8f0"/><line x1="80" y1="234.0" x2="670" y2="234.0" stroke="#e2e8f0"/><text x="434.0" y="384" text-anchor="middle" font-size="14">28</text><text x="68" y="239.0" text-anchor="end" font-size="14">69</text><line x1="552.0" y1="45" x2="552.0" y2="360" stroke="#e2e8f0"/><line x1="80" y1="297.0" x2="670" y2="297.0" stroke="#e2e8f0"/><text x="552.0" y="384" text-anchor="middle" font-size="14">30</text><text x="68" y="302.0" text-anchor="end" font-size="14">59</text><line x1="670.0" y1="45" x2="670.0" y2="360" stroke="#e2e8f0"/><line x1="80" y1="360.0" x2="670" y2="360.0" stroke="#e2e8f0"/><text x="670.0" y="384" text-anchor="middle" font-size="14">32</text><text x="68" y="365.0" text-anchor="end" font-size="14">49</text><line x1="80" y1="360" x2="670" y2="360" stroke="#334155" stroke-width="2"/><line x1="80" y1="45" x2="80" y2="360" stroke="#334155" stroke-width="2"/><circle cx="611.0" cy="66.7" r="6" fill="#2563eb"/><circle cx="434.0" cy="174.1" r="6" fill="#2563eb"/><circle cx="552.0" cy="98.3" r="6" fill="#2563eb"/><circle cx="316.0" cy="256.2" r="6" fill="#2563eb"/><circle cx="257.0" cy="287.8" r="6" fill="#2563eb"/><circle cx="552.0" cy="110.9" r="6" fill="#2563eb"/><circle cx="493.0" cy="148.8" r="6" fill="#2563eb"/><circle cx="139.0" cy="338.3" r="6" fill="#2563eb"/><circle cx="434.0" cy="186.7" r="6" fill="#2563eb"/><circle cx="375.0" cy="224.6" r="6" fill="#2563eb"/><text x="350.0" y="412" text-anchor="middle" font-family="sans-serif">최고 기온</text><text x="20" y="215.0" text-anchor="middle" transform="rotate(-90 20 215.0)" font-family="sans-serif">판매량</text></svg>