<svg xmlns="http://www.w3.org/2000/svg" width="760" height="430"><rect width="100%" height="100%" rx="18" fill="white"/><text x="380.0" y="28" text-anchor="middle" font-family="sans-serif" font-size="20" font-weight="700">방문자 수 히스토그램과 도수분포다각형</text><rect x="129.6" y="293.9" width="109.2" height="71.1" fill="#bfdbfe" stroke="#2563eb" stroke-width="2"/><rect x="238.8" y="187.2" width="109.2" height="177.8" fill="#bfdbfe" stroke="#2563eb" stroke-width="2"/><rect x="347.9" y="222.8" width="109.2" height="142.2" fill="#bfdbfe" stroke="#2563eb" stroke-width="2"/><rect x="457.1" y="80.6" width="109.2" height="284.4" fill="#bfdbfe" stroke="#2563eb" stroke-width="2"/><rect x="566.2" y="329.4" width="109.2" height="35.6" fill="#bfdbfe" stroke="#2563eb" stroke-width="2"/><polyline points="75.0,365.0 184.2,293.9 293.3,187.2 402.5,222.8 511.7,80.6 620.8,329.4 730.0,365.0" fill="none" stroke="#dc2626" stroke-width="3"/><circle cx="75.0" cy="365.0" r="5" fill="#dc2626"/><circle cx="184.2" cy="293.9" r="5" fill="#dc2626"/><circle cx="293.3" cy="187.2" r="5" fill="#dc2626"/><circle cx="402.5" cy="222.8" r="5" fill="#dc2626"/><circle cx="511.7" cy="80.6" r="5" fill="#dc2626"/><circle cx="620.8" cy="329.4" r="5" fill="#dc2626"/><circle cx="730.0" cy="365.0" r="5" fill="#dc2626"/><line x1="75" y1="365" x2="730" y2="365" stroke="#334155" stroke-width="2"/><line x1="75" y1="45" x2="75" y2="365" stroke="#334155" stroke-width="2"/></svg>